<?xml version="1.0" encoding="UTF-8"?>
<svg xmlns="http://www.w3.org/2000/svg" width="54" height="70" viewBox="0 0 54 70" fill="none">
  <path fill-rule="evenodd" clip-rule="evenodd" d="M8.41595 69.8542H0.695097C0.222731 69.8542 -0.111613 69.3937 0.0347373 68.9439L15.9191 20.0559C16.0119 19.7703 16.2784 19.5764 16.5794 19.5764H24.3015C24.7738 19.5764 25.1082 20.0369 24.963 20.4866L9.0775 69.3747C8.98469 69.6602 8.71817 69.8542 8.41595 69.8542ZM22.8558 69.8542H15.135C14.6626 69.8542 14.3271 69.3937 14.4734 68.9439L36.7186 0.480694C36.8114 0.193944 37.0791 0 37.3802 0H45.101C45.5734 0 45.9089 0.461657 45.7626 0.910226L23.5174 69.3747C23.4246 69.6602 23.1568 69.8542 22.8558 69.8542ZM43.6066 50.5443H35.8845C35.4122 50.5443 35.0778 50.0826 35.2242 49.6341L44.8345 20.0571C44.9273 19.7703 45.1938 19.5764 45.4949 19.5764H53.2157C53.6881 19.5764 54.0236 20.0369 53.8773 20.4866L44.2681 50.0636C44.1741 50.3504 43.9076 50.5443 43.6066 50.5443Z" fill="#FF0000"></path>
</svg>
